#!OML:ASF H:\Dans Jumps\Project 1\Capture day 1\Session 1\subject.ASF
:FULLY-SPECIFIED
:DEGREES
283
root -0.0756436 17.926 -13.2736 14.7459 3.38958 0.0187421
lowerback 20.0341 0.567672 -1.75257
upperback 8.54129 0.551561 2.79132
thorax -2.01281 0.190288 3.85156
lowerneck -11.8906 -0.905164 -2.20346
upperneck 20.6116 -0.828148 0.241976
head 8.37481 -0.528086 0.36305
rclavicle 3.57812e-015 -2.10712e-014
rhumerus 7.87612 -3.74797 -87.4925
rradius 32.6878
rwrist 22.8028
rhand -24.5436 -21.648
rfingers 7.12502
rthumb 1.95241 -51.6188
lclavicle 3.57812e-015 -2.10712e-014
lhumerus 12.3595 -13.049 90.7595
lradius 32.7158
lwrist 28.9911
lhand -30.0439 -17.2627
lfingers 7.12502
lthumb -3.35989 12.6906
rfemur -37.6437 -6.26302 18.7464
rtibia 50.1736
rfoot -1.06499 -4.10847
rtoes -0.894915
lfemur -38.8799 4.89626 -19.8267
ltibia 49.2564
lfoot 3.99739 0.165521
ltoes -11.1973
284
root -0.0712491 18.1963 -13.1629 14.4539 3.32434 0.038542
lowerback 19.3976 0.608302 -1.88073
upperback 8.63934 0.584809 2.8156
thorax -1.58624 0.195746 3.94108
lowerneck -11.1267 -0.965625 -2.37301
upperneck 20.6983 -0.920259 0.35653
head 8.26701 -0.573491 0.422999
rclavicle -5.96354e-015 -1.27222e-014
rhumerus 8.18312 -3.07795 -87.5998
rradius 32.6637
rwrist 22.9075
rhand -24.5781 -21.579
rfingers 7.12502
rthumb 1.91908 -51.5501
lclavicle -5.96354e-015 -1.27222e-014
lhumerus 12.585 -13.0449 91.2977
lradius 33.2932
lwrist 29.1655
lhand -29.8566 -17.2499
lfingers 7.12502
lthumb -3.17896 12.7062
rfemur -36.6858 -6.30015 18.6037
rtibia 48.7043
rfoot 3.11144 -4.15282
rtoes 2.45139
lfemur -37.6096 4.80943 -19.6853
ltibia 47.248
lfoot 8.30289 -0.397716
ltoes -10.0306
285
root -0.0666428 18.4609 -13.0559 14.1915 3.24338 0.0385267
lowerback 18.8412 0.6428 -1.97597
upperback 8.70182 0.616612 2.82663
thorax -1.23768 0.202662 3.99907
lowerneck -10.439 -1.00511 -2.50913
upperneck 20.8275 -0.985321 0.447874
head 8.18699 -0.606527 0.472429
rclavicle -5.56597e-015 7.55382e-015
rhumerus 8.43746 -2.4788 -87.7292
rradius 32.5841
rwrist 22.9562
rhand -24.5321 -21.4804
rfingers 7.12502
rthumb 1.96345 -51.4511
lclavicle -5.56597e-015 7.55382e-015
lhumerus 12.6899 -13.0963 91.7669
lradius 33.9328
lwrist 29.4582
lhand -29.7068 -17.2912
lfingers 7.12502
lthumb -3.03434 12.6669
rfemur -35.9248 -6.30714 18.5002
rtibia 47.457
rfoot 7.15647 -4.58817
rtoes 7.16306
lfemur -36.4912 4.70736 -19.5307
ltibia 45.3964
lfoot 12.5942 -0.611352
ltoes -7.87706
286
root -0.0621401 18.7174 -12.9527 13.9498 3.15179 0.0168167
lowerback 18.3706 0.675893 -2.0161
upperback 8.73627 0.655258 2.81042
thorax -0.962745 0.21626 3.99608
lowerneck -9.86241 -1.02333 -2.56414
upperneck 21.0076 -1.02686 0.502434
head 8.14328 -0.62627 0.49815
rclavicle 4.77083e-015 2.54444e-014
rhumerus 8.65603 -2.00224 -87.9079
rradius 32.4591
rwrist 22.9416
rhand -24.4179 -21.3613
rfingers 7.12502
rthumb 2.07376 -51.331
lclavicle 4.77083e-015 2.54444e-014
lhumerus 12.7154 -13.2661 92.1294
lradius 34.6093
lwrist 29.892
lhand -29.6208 -17.3769
lfingers 7.12502
lthumb -2.95122 12.5825
rfemur -35.3505 -6.28297 18.4432
rtibia 46.4794
rfoot 10.6847 -5.35376
rtoes 12.463
lfemur -35.5307 4.60849 -19.3675
ltibia 43.7673
lfoot 16.5214 -0.492697
ltoes -4.99468
287
root -0.058108 18.964 -12.8536 13.7417 3.05369 -0.0216855
lowerback 17.961 0.700229 -2.01178
upperback 8.73348 0.689118 2.76946
thorax -0.757793 0.230838 3.94292
lowerneck -9.3617 -1.01696 -2.55226
upperneck 21.2211 -1.03742 0.521071
head 8.12343 -0.629963 0.503535
rclavicle -8.74653e-015 -1.11319e-014
rhumerus 8.83486 -1.62938 -88.1423
rradius 32.2811
rwrist 22.8929
rhand -24.249 -21.2307
rfingers 7.12502
rthumb 2.2369 -51.1987
lclavicle -8.74653e-015 -1.11319e-014
lhumerus 12.6641 -13.5215 92.39
lradius 35.2875
lwrist 30.4304
lhand -29.5848 -17.5493
lfingers 7.12502
lthumb -2.91651 12.4105
rfemur -34.9781 -6.22581 18.4294
rtibia 45.809
rfoot 13.3914 -6.27641
rtoes 17.5554
lfemur -34.7595 4.53662 -19.2136
ltibia 42.4259
lfoot 19.743 -0.185006
ltoes -1.82447
288
root -0.0548102 19.1993 -12.759 13.5683 2.95109 -0.0723114
lowerback 17.603 0.719133 -1.96529
upperback 8.70233 0.721518 2.69951
thorax -0.608676 0.247859 3.83566
lowerneck -8.97847 -0.999877 -2.48024
upperneck 21.4798 -1.03873 0.531513
head 8.13946 -0.625498 0.496505
rclavicle -4.77083e-015 -7.95139e-016
rhumerus 8.98667 -1.3541 -88.4303
rradius 32.0711
rwrist 22.8406
rhand -24.0735 -21.0678
rfingers 7.12502
rthumb 2.40641 -51.0339
lclavicle -4.77083e-015 -7.95139e-016
lhumerus 12.5676 -13.864 92.5457
lradius 35.9451
lwrist 31.0162
lhand -29.6071 -17.775
lfingers 7.12502
lthumb -2.93805 12.1845
rfemur -34.8028 -6.13132 18.4505
rtibia 45.4561
rfoot 15.1673 -7.17483
rtoes 21.5485
lfemur -34.1906 4.51076 -19.0826
ltibia 41.4226
lfoot 22.038 0.130317
ltoes 1.09332
289
root -0.0525254 19.4226 -12.6694 13.4307 2.85483 -0.129863
lowerback 17.2844 0.730734 -1.88876
upperback 8.65268 0.748116 2.60676
thorax -0.498385 0.264308 3.6886
lowerneck -8.72674 -0.974216 -2.35202
upperneck 21.7718 -1.03243 0.534043
head 8.19022 -0.613684 0.477532
rclavicle 2.78299e-015 1.98785e-015
rhumerus 9.13148 -1.15164 -88.7602
rradius 31.8395
rwrist 22.815
rhand -23.8383 -20.9734
rfingers 7.12502
rthumb 2.63348 -50.9369
lclavicle 2.78299e-015 1.98785e-015
lhumerus 12.4562 -14.2666 92.6098
lradius 36.5584
lwrist 31.5656
lhand -29.654 -18.0153
lfingers 7.12502
lthumb -2.98333 11.9435
rfemur -34.8142 -5.99795 18.4962
rtibia 45.3997
rfoot 16.1129 -7.91491
rtoes 24.2422
lfemur -33.8336 4.52485 -18.9794
ltibia 40.7832
lfoot 23.3924 0.308115
ltoes 3.21361
290
root -0.0512407 19.6336 -12.5848 13.3219 2.76835 -0.185707
lowerback 16.998 0.724349 -1.82367
upperback 8.58732 0.749458 2.51489
thorax -0.418973 0.268546 3.55379
lowerneck -8.56752 -0.933661 -2.23758
upperneck 22.0701 -1.0034 0.54814
head 8.26003 -0.591034 0.466457
rclavicle -5.96354e-015 -1.07344e-014
rhumerus 9.26498 -0.928326 -89.0967
rradius 31.593
rwrist 22.8341
rhand -23.6095 -20.8835
rfingers 7.12502
rthumb 2.85449 -50.8441
lclavicle -5.96354e-015 -1.07344e-014
lhumerus 12.3286 -14.636 92.6266
lradius 37.1087
lwrist 31.993
lhand -29.7034 -18.2387
lfingers 7.12502
lthumb -3.03099 11.7195
rfemur -34.9874 -5.82374 18.5509
rtibia 45.5869
rfoot 16.4969 -8.43695
rtoes 25.7684
lfemur -33.6792 4.56447 -18.9086
ltibia 40.4998
lfoot 24.0071 0.292429
ltoes 4.52125
